<svg xmlns="http://www.w3.org/2000/svg" viewBox="0 0 110 110"><defs><style>.cls-1{fill:#e7efff;}.cls-2{fill:#00c99f;}.cls-3{fill:#ff4d69;}.cls-4{fill:#ffa100;}.cls-5{fill:#323fd4;}.cls-6{fill:#8fa2ff;}.cls-7{fill:#7f96d1;}.cls-8{fill:#a5bced;}.cls-9{fill:#4e6aff;}.cls-10{fill:#fff;}</style></defs><title>Boss</title><g id="_28._Boss" data-name="28. Boss"><circle class="cls-1" cx="55" cy="59" r="50"/><circle class="cls-2" cx="27" cy="4" r="3"/><circle class="cls-3" cx="6" cy="54" r="3"/><circle class="cls-2" cx="97" cy="54" r="3"/><circle class="cls-4" cx="104" cy="106" r="3"/><path class="cls-5" d="M90,67.46V85H20V67.46a12,12,0,0,1,8-11.3L48,49H62l20,7.16A12,12,0,0,1,90,67.46Z"/><path class="cls-6" d="M64.9,50,62,81H48c-3.06-32.67-3-30.94-2.85-31L48,49H62Z"/><polygon class="cls-4" points="60 61 58 65 52 65 50 61 55 57 60 61"/><path class="cls-7" d="M55,57a7,7,0,0,1-7-7V49H62v1A7,7,0,0,1,55,57Z"/><path class="cls-8" d="M96.43,87c-19.83,29.29-63,29.36-82.86,0Z"/><path class="cls-9" d="M55,57l-4.59,4.59A4.84,4.84,0,0,1,47,63L45.15,50,48,49Z"/><path class="cls-9" d="M64.85,50,63,63a4.84,4.84,0,0,1-3.41-1.41L55,57l7-8Z"/><polygon class="cls-4" points="63 81 47 81 52 65 58 65 63 81"/><path class="cls-10" d="M39,81l2.78-11.1a2,2,0,0,0-.32-1.65l-3.69-5.17a2,2,0,0,1-.07-2.21l6.45-10.49,1-.36c.1,0-.24-1.49,5.85,31Z"/><path class="cls-10" d="M65.85,50.38,72.3,60.87a2,2,0,0,1-.07,2.21l-3.69,5.17a2,2,0,0,0-.32,1.65L71,81H59l5.81-31Z"/><path class="cls-5" d="M53,5h4A16,16,0,0,1,73,21V33a0,0,0,0,1,0,0H37a0,0,0,0,1,0,0V21A16,16,0,0,1,53,5Z"/><path class="cls-8" d="M55,51A14,14,0,0,1,41,37V27a4,4,0,0,1,4-4l2.83,1.13a11.68,11.68,0,0,0,4.5.87c4.23,0,6.48-1.87,9.67-4a7,7,0,0,1,7,7v9A14,14,0,0,1,55,51Z"/><path class="cls-8" d="M39,35h2V27H39a4,4,0,0,0,0,8Z"/><path class="cls-8" d="M71,35H68V27h3a4,4,0,0,1,0,8Z"/><path class="cls-7" d="M50.55,44.89a1,1,0,1,1,.9-1.78,8,8,0,0,0,7.1,0,1,1,0,1,1,.9,1.78A10,10,0,0,1,50.55,44.89Z"/><path class="cls-7" d="M103,82v4a1,1,0,0,1-1,1H13.57a48.22,48.22,0,0,1-3.47-6H102A1,1,0,0,1,103,82Z"/><path class="cls-8" d="M29,78v2a1,1,0,0,1-1,1H10.1a41.75,41.75,0,0,1-1.75-4H28A1,1,0,0,1,29,78Z"/><path class="cls-7" d="M29,74v2a1,1,0,0,1-1,1H8.35c-.45-1.15-.86-2.32-1.21-3.51A1,1,0,0,1,8,73H28A1,1,0,0,1,29,74Z"/><path class="cls-4" d="M105,26.15l-2,13a1,1,0,0,1-1,.85H84a1,1,0,0,1-1-.85l-2-13a1,1,0,0,1,1.63-.92l5.12,4.27,4.39-7a1,1,0,0,1,1.7,0l4.39,7,5.12-4.27A1,1,0,0,1,105,26.15Z"/><circle class="cls-4" cx="93" cy="18" r="2"/><circle class="cls-4" cx="82" cy="21" r="2"/><circle class="cls-4" cx="104" cy="21" r="2"/><path class="cls-10" d="M85,63v2H82a3,3,0,0,0-3,3v6a3,3,0,0,0,3,3h3v2a2,2,0,0,0,2,2H97a2,2,0,0,0,2-2V63ZM82,75a1,1,0,0,1-1-1V68a1,1,0,0,1,1-1h3v8Z"/></g></svg>