<svg xmlns="http://www.w3.org/2000/svg" viewBox="0 0 110 110"><defs><style>.cls-1{fill:#e7efff;}.cls-2{fill:#ff4d69;}.cls-3{fill:#ffa100;}.cls-4{fill:#00c99f;}.cls-5{fill:#8fa2ff;}.cls-6{fill:#4e6aff;}.cls-7{fill:#fff;}.cls-8{fill:#323fd4;}</style></defs><title>Essay</title><g id="_4._Essay" data-name="4. Essay"><circle class="cls-1" cx="51" cy="59" r="50"/><circle class="cls-2" cx="44" cy="4" r="3"/><circle class="cls-3" cx="106" cy="69" r="3"/><circle class="cls-4" cx="87" cy="106" r="3"/><circle class="cls-4" cx="4" cy="22" r="3"/><path class="cls-5" d="M80,30V99.73a50,50,0,0,1-66-7.11V20a2,2,0,0,1,2-2H68Z"/><path class="cls-6" d="M32,50A14,14,0,1,1,46,36a1,1,0,0,1-2,0,12,12,0,1,0-2.54,7.38A1,1,0,0,1,43,44.62,13.94,13.94,0,0,1,32,50Z"/><path class="cls-7" d="M30.94,30.66a1,1,0,0,0-1.88,0l-4,11a1,1,0,1,0,1.88.68L27.81,40c.27.06-.48,0,4.19,0a1.06,1.06,0,0,0,.19,0l.87,2.38a1,1,0,1,0,1.88-.68ZM28.52,38,30,33.93,31.48,38Z"/><path class="cls-7" d="M39,31H38V30a1,1,0,0,0-2,0v1H35a1,1,0,0,0,0,2h1v1a1,1,0,0,0,2,0V33h1a1,1,0,0,0,0-2Z"/><path class="cls-7" d="M72,58H27a1,1,0,0,1,0-2H72a1,1,0,0,1,0,2Z"/><path class="cls-7" d="M72,64H21a1,1,0,0,1,0-2H72a1,1,0,0,1,0,2Z"/><path class="cls-7" d="M63,70H21a1,1,0,0,1,0-2H63a1,1,0,0,1,0,2Z"/><path class="cls-7" d="M63,76H21a1,1,0,0,1,0-2H63a1,1,0,0,1,0,2Z"/><path class="cls-7" d="M63,82H21a1,1,0,0,1,0-2H63a1,1,0,0,1,0,2Z"/><path class="cls-7" d="M72,88H21a1,1,0,0,1,0-2H72a1,1,0,0,1,0,2Z"/><path class="cls-7" d="M72,94H21a1,1,0,0,1,0-2H72a1,1,0,0,1,0,2Z"/><path class="cls-7" d="M56,99a1,1,0,0,1-1,1H22.38c-.74-.51-1.46-1-2.16-1.61A1,1,0,0,1,21,98H55A1,1,0,0,1,56,99Z"/><rect class="cls-6" x="68.62" y="54.34" width="36.77" height="11.31" transform="translate(-16.94 79.09) rotate(-45)"/><path class="cls-8" d="M96,43l8,8,3.88-3.88a3,3,0,0,0,0-4.24l-3.76-3.76a3,3,0,0,0-4.24,0Z"/><polygon class="cls-1" points="70 69 67 80 78 77 70 69"/><polygon class="cls-6" points="71.71 78.71 67 80 68.29 75.29 71.71 78.71"/><circle class="cls-4" cx="80" cy="18" r="16"/><path class="cls-7" d="M77.59,23.41l-5-5a2,2,0,0,1,2.82-2.82L79,19.17l6.59-6.58a2,2,0,0,1,2.82,2.82l-8,8A2,2,0,0,1,77.59,23.41Z"/><path class="cls-7" d="M72,50H60a1,1,0,0,1,0-2H72a1,1,0,0,1,0,2Z"/><path class="cls-7" d="M72,44H60a1,1,0,0,1,0-2H72a1,1,0,0,1,0,2Z"/></g></svg>