<svg xmlns="http://www.w3.org/2000/svg" viewBox="0 0 110 110"><defs><style>.cls-1{fill:#e7efff;}.cls-2{fill:#ffa100;}.cls-3{fill:#00c99f;}.cls-4{fill:#ff4d69;}.cls-5{fill:#a5bced;}.cls-6{fill:#7f96d1;}.cls-7{fill:#4e6aff;}.cls-8{fill:#8fa2ff;}.cls-9{fill:#323fd4;}</style></defs><title>Graduation cap</title><g id="_11._Graduation_cap" data-name="11. Graduation cap"><circle class="cls-1" cx="51" cy="55" r="50"/><path class="cls-1" d="M101,55c0,35.27-35.71,59.56-68.52,46.45A50,50,0,1,1,101,55Z"/><circle class="cls-2" cx="29" cy="4" r="3"/><circle class="cls-3" cx="106" cy="24" r="3"/><circle class="cls-4" cx="102" cy="86" r="3"/><circle class="cls-3" cx="4" cy="72.43" r="3"/><path class="cls-5" d="M88,92a11,11,0,0,1-12,10.9l-28.07-2.81c-1.2-.12-.56-.12-15.41,1.36A50,50,0,0,1,10,83.57,10.94,10.94,0,0,1,18,81.1c30.59,3.06,28.6,2.94,29.85,2.81L76,81.1A11,11,0,0,1,88,92Z"/><path class="cls-2" d="M54,84v24a1,1,0,0,1-1.45.89L47,106.12l-5.55,2.77A1,1,0,0,1,40,108V84a2,2,0,0,1,2-2H52A2,2,0,0,1,54,84Z"/><circle class="cls-6" cx="78" cy="92" r="6"/><path class="cls-7" d="M75,36V61.35a7,7,0,0,1-3.78,6.22l-21,10.89a7,7,0,0,1-6.44,0l-21-10.89A7,7,0,0,1,19,61.35V36a1,1,0,0,1,1-1H74A1,1,0,0,1,75,36Z"/><path class="cls-8" d="M92.46,40.89l-45,23a1,1,0,0,1-.92,0L2.84,41.55c.34-1.26.74-2.49,1.19-3.71L46.54,16.11a1,1,0,0,1,.92,0l45,23A1,1,0,0,1,92.46,40.89Z"/><path class="cls-9" d="M69,73a2,2,0,0,1-2-2V54.2a2,2,0,0,0-.93-1.69L45.93,39.69a2,2,0,1,1,2.14-3.38L68.22,49.13A6,6,0,0,1,71,54.2V71A2,2,0,0,1,69,73Z"/><path class="cls-4" d="M73.63,87.93,69,86.08l-4.63,1.85A1,1,0,0,1,63,86.82l3-16A1,1,0,0,1,67,70h4a1,1,0,0,1,1,.82l3,16A1,1,0,0,1,73.63,87.93Z"/><circle class="cls-2" cx="69" cy="71" r="5"/></g></svg>