<svg xmlns="http://www.w3.org/2000/svg" viewBox="0 0 110 110"><defs><style>.cls-1{fill:#e7efff;}.cls-2{fill:#00c99f;}.cls-3{fill:#ffa100;}.cls-4{fill:#ff4d69;}.cls-5{fill:#4e6aff;}.cls-6{fill:#8fa2ff;}.cls-7{fill:#fff;}.cls-8{fill:#323fd4;}.cls-9{fill:#a5bced;}</style></defs><title>Learn</title><g id="_23._Learn" data-name="23. Learn"><circle class="cls-1" cx="55" cy="59" r="50"/><circle class="cls-2" cx="32" cy="4" r="3"/><circle class="cls-3" cx="106" cy="55" r="3"/><circle class="cls-2" cx="101" cy="106" r="3"/><circle class="cls-4" cx="4" cy="37" r="3"/><path class="cls-5" d="M99,92a10,10,0,0,1-10,10H29.49A50,50,0,0,1,15.78,90H97A2,2,0,0,1,99,92Z"/><rect class="cls-6" x="15" y="32" width="80" height="58" rx="5"/><rect class="cls-7" x="20" y="37" width="70" height="48" rx="1"/><path class="cls-5" d="M72,17H38a1,1,0,0,0-1,1V31.8a3,3,0,0,0,1.6,2.65C54.81,43,54,42.74,55,42.74s.17.3,16.4-8.29A3,3,0,0,0,73,31.8V18A1,1,0,0,0,72,17Z"/><path class="cls-6" d="M86.44,17.1l-31-15a1,1,0,0,0-.88,0l-31,15a1,1,0,0,0,0,1.8l31,15a1,1,0,0,0,.88,0l31-15A1,1,0,0,0,86.44,17.1Z"/><path class="cls-8" d="M69,42a1,1,0,0,1-1-1V26.74A2,2,0,0,0,67,25L54.5,17.87a1,1,0,1,1,1-1.74L68,23.27a4,4,0,0,1,2,3.47V41A1,1,0,0,1,69,42Z"/><path class="cls-4" d="M71,46.41V51a1,1,0,0,1-1,1H68a1,1,0,0,1-1-1V46.41c0-.53.18-.59,2-2.41C70.8,45.8,71,45.86,71,46.41Z"/><circle class="cls-3" cx="69" cy="42" r="3"/><path class="cls-8" d="M45,90H65a0,0,0,0,1,0,0v4a2,2,0,0,1-2,2H47a2,2,0,0,1-2-2V90A0,0,0,0,1,45,90Z"/><path class="cls-9" d="M84,46H68a1,1,0,0,0-1,1V63a1,1,0,0,0,1,1H84a1,1,0,0,0,1-1V47A1,1,0,0,0,84,46ZM83,62H69V48H83Z"/><path class="cls-9" d="M27.71,54.29A1,1,0,0,0,26,55V78a1,1,0,0,0,1,1H50a1,1,0,0,0,.71-1.71ZM28,77V73h4v4Zm6,0V72a1,1,0,0,0-1-1H28V57.41L47.59,77Z"/><path class="cls-9" d="M41.29,62.71a1,1,0,0,0,1.42,0L44,61.41l1.29,1.3a1,1,0,0,0,1.42-1.42L45.41,60l1.3-1.29a1,1,0,0,0-1.42-1.42L44,58.59l-1.29-1.3a1,1,0,0,0-1.42,1.42L42.59,60l-1.3,1.29A1,1,0,0,0,41.29,62.71Z"/><path class="cls-9" d="M60,77H56a1,1,0,0,0,0,2h4a1,1,0,0,0,0-2Z"/><path class="cls-9" d="M60,73H56a1,1,0,0,0,0,2h4a1,1,0,0,0,0-2Z"/><path class="cls-9" d="M72,69H69a1,1,0,0,0-1,1v8a1,1,0,0,0,1,1h3a3,3,0,0,0,2.22-5A3,3,0,0,0,72,69Zm-2,2h2a1,1,0,0,1,0,2H70Zm2,6H70V75h2a1,1,0,0,1,0,2Z"/><path class="cls-9" d="M83,71h1a1,1,0,0,0,0-2H83a5,5,0,0,0,0,10h1a1,1,0,0,0,0-2H83a3,3,0,0,1,0-6Z"/><path class="cls-9" d="M55,46a6,6,0,1,0,6,6A6,6,0,0,0,55,46Zm0,10a4,4,0,1,1,4-4A4,4,0,0,1,55,56Z"/><path class="cls-9" d="M27,45v5a1,1,0,0,0,2,0V44a1,1,0,0,0-1-1H27a1,1,0,0,0,0,2Z"/><path class="cls-9" d="M33,51h2a2,2,0,0,0,2-2V45a2,2,0,0,0-2-2H33a2,2,0,0,0-2,2v4A2,2,0,0,0,33,51Zm0-6h2v4H33Z"/></g></svg>