<svg xmlns="http://www.w3.org/2000/svg" viewBox="0 0 110 110"><defs><style>.cls-1{fill:#e7efff;}.cls-2{fill:none;stroke:#8fa2ff;stroke-linecap:round;stroke-linejoin:round;stroke-width:4px;}.cls-3{fill:#00c99f;}.cls-4{fill:#ff4d69;}.cls-5{fill:#ffa100;}.cls-6{fill:#4e6aff;}.cls-7{fill:#323fd4;}.cls-8{fill:#fff;}.cls-9{fill:#8fa2ff;}</style></defs><title>16. Lifebuoy</title><g id="_16._Lifebuoy" data-name="16. Lifebuoy"><circle class="cls-1" cx="55" cy="55" r="50"/><path class="cls-2" d="M55,15.46C35.36,5.08,11,19.16,11,42a29.89,29.89,0,0,0,3,13.09"/><path class="cls-2" d="M95.54,56C105.92,36.36,91.84,12,69,12a29.89,29.89,0,0,0-13.09,3"/><path class="cls-2" d="M55,96.54C74.64,106.92,99,92.84,99,70a29.86,29.86,0,0,0-3-13.09"/><path class="cls-2" d="M14.46,56C4.08,75.64,18.16,100,41,100a29.89,29.89,0,0,0,13.09-3"/><circle class="cls-3" cx="11" cy="4" r="3"/><circle class="cls-4" cx="106" cy="4" r="3"/><circle class="cls-3" cx="99" cy="102" r="3"/><circle class="cls-5" cx="4" cy="106" r="3"/><path class="cls-6" d="M55,17A38,38,0,1,0,93,55,38,38,0,0,0,55,17Zm0,60A22,22,0,1,1,77,55,22,22,0,0,1,55,77Z"/><path class="cls-7" d="M58,19H52V14a3,3,0,0,1,6,0Z"/><path class="cls-7" d="M19,52v6H14a3,3,0,0,1,0-6Z"/><path class="cls-7" d="M52,91h6v5a3,3,0,0,1-6,0Z"/><path class="cls-7" d="M91,58V52h5a3,3,0,0,1,0,6Z"/><circle class="cls-5" cx="55" cy="55" r="18"/><path class="cls-8" d="M51,52a1,1,0,0,0,1,1h1V64a1,1,0,0,0,1,1h2a1,1,0,0,0,1-1V52a1,1,0,0,0-1-1H52A1,1,0,0,0,51,52Z"/><circle class="cls-8" cx="55" cy="47" r="2"/><path class="cls-9" d="M63.41,17.93,60.27,33.64a22.1,22.1,0,0,0-10.54,0L46.59,17.93A38.49,38.49,0,0,1,63.41,17.93Z"/><path class="cls-9" d="M33.64,60.27,17.93,63.41a38.49,38.49,0,0,1,0-16.82l15.71,3.14A22.1,22.1,0,0,0,33.64,60.27Z"/><path class="cls-9" d="M63.41,92.07a38.49,38.49,0,0,1-16.82,0l3.14-15.71a22.1,22.1,0,0,0,10.54,0Z"/><path class="cls-9" d="M92.07,63.41,76.36,60.27a22.1,22.1,0,0,0,0-10.54l15.71-3.14A38.49,38.49,0,0,1,92.07,63.41Z"/></g></svg>