<svg xmlns="http://www.w3.org/2000/svg" viewBox="0 0 110 110"><defs><style>.cls-1{fill:#e7efff;}.cls-2{fill:#00c99f;}.cls-3{fill:#ff4d69;}.cls-4{fill:#ffa100;}.cls-5{fill:#4e6aff;}.cls-6{fill:#323fd4;}.cls-7{fill:#8fa2ff;}.cls-8{fill:#a5bced;}.cls-9{fill:#7f96d1;}.cls-10{fill:#fff;}</style></defs><title>Medal</title><g id="_8._Medal" data-name="8. Medal"><circle class="cls-1" cx="55" cy="55" r="50"/><path class="cls-1" d="M105,55A50,50,0,1,1,38.3,7.87C71-3.77,105,20.72,105,55Z"/><circle class="cls-2" cx="25" cy="4" r="3"/><circle class="cls-3" cx="106" cy="30" r="3"/><circle class="cls-2" cx="98" cy="103" r="3"/><circle class="cls-4" cx="4" cy="85" r="3"/><path class="cls-4" d="M28.45,46.89a9.77,9.77,0,0,0-4.92,5.67L23,54.32a1,1,0,0,1-1.9,0l-.58-1.76a9.77,9.77,0,0,0-4.92-5.67,1,1,0,0,1,0-1.78,9.77,9.77,0,0,0,4.92-5.67l.58-1.76a1,1,0,0,1,1.9,0l.58,1.76a9.77,9.77,0,0,0,4.92,5.67A1,1,0,0,1,28.45,46.89Z"/><path class="cls-4" d="M99.45,65.89a9.77,9.77,0,0,0-4.92,5.67L94,73.32a1,1,0,0,1-1.9,0l-.58-1.76a9.77,9.77,0,0,0-4.92-5.67,1,1,0,0,1,0-1.78,9.77,9.77,0,0,0,4.92-5.67l.58-1.76a1,1,0,0,1,1.9,0l.58,1.76a9.77,9.77,0,0,0,4.92,5.67A1,1,0,0,1,99.45,65.89Z"/><path class="cls-5" d="M88.61,18,67,49H43L71.7,7.86A50,50,0,0,1,88.61,18Z"/><path class="cls-6" d="M84.44,14.6,60,49H50L77.11,10.15A48.7,48.7,0,0,1,84.44,14.6Z"/><path class="cls-7" d="M67,49H43L21.39,18A49.89,49.89,0,0,1,38.3,7.87Z"/><path class="cls-5" d="M60,49H50L25.56,14.6a50.4,50.4,0,0,1,7.33-4.45Z"/><path class="cls-8" d="M42,49H68a1,1,0,0,1,1,1v7a0,0,0,0,1,0,0H41a0,0,0,0,1,0,0V50A1,1,0,0,1,42,49Z"/><circle class="cls-9" cx="55" cy="81" r="28"/><circle class="cls-8" cx="55" cy="81" r="23"/><path class="cls-10" d="M60,89H57V69a2,2,0,0,0-2.74-1.86l-5,2a2,2,0,0,0,1.48,3.72L53,72V89H50a2,2,0,0,0,0,4H60a2,2,0,0,0,0-4Z"/></g></svg>