<svg xmlns="http://www.w3.org/2000/svg" viewBox="0 0 110 110"><defs><style>.cls-1{fill:#e7efff;}.cls-2{fill:#00c99f;}.cls-3{fill:#ff4d69;}.cls-4{fill:#ffa100;}.cls-5{fill:#8fa2ff;}.cls-6{fill:#323fd4;}.cls-7{fill:#4e6aff;}.cls-8{fill:#fff;}.cls-9{fill:#7f96d1;}</style></defs><title>Promotion</title><g id="_30._Promotion" data-name="30. Promotion"><circle class="cls-1" cx="52" cy="58" r="51"/><circle class="cls-2" cx="26" cy="4" r="3"/><circle class="cls-3" cx="10" cy="58" r="3"/><circle class="cls-2" cx="106" cy="49" r="3"/><circle class="cls-4" cx="74" cy="89" r="3"/><circle class="cls-5" cx="71" cy="39" r="12"/><path class="cls-6" d="M99,69a4.25,4.25,0,0,1-6,0L41,17a4.24,4.24,0,0,1,6-6L99,63A4.24,4.24,0,0,1,99,69Z"/><path class="cls-3" d="M37,93l5,5,2.88-2.88a3,3,0,0,0,0-4.24L42,88Z"/><path class="cls-6" d="M49.24,107.41,47.5,108.8A50.47,50.47,0,0,1,26,101.86L36,91c2.47,2.8,0,.28,13.39,13.42A2,2,0,0,1,49.24,107.41Z"/><path class="cls-5" d="M90,66A105.67,105.67,0,0,0,37.85,93.1c-8,7.65-10.11,9.64-10.21,9.71A51.15,51.15,0,0,1,7.92,83.67c.21-.26-.4.39,10-10.52A105.67,105.67,0,0,0,45,21Z"/><path class="cls-7" d="M37.85,93.1c-8,7.65-10.11,9.64-10.21,9.71A51.15,51.15,0,0,1,7.92,83.67c.21-.26-.4.39,10-10.52Z"/><path class="cls-7" d="M90,66a106.53,106.53,0,0,0-15.61,4.39L40.61,36.61A106.53,106.53,0,0,0,45,21Z"/><line class="cls-7" x1="19.07" y1="72.07" x2="19" y2="72"/><path class="cls-4" d="M88,23a1,1,0,0,1-.71-1.71l8-8a1,1,0,0,1,1.42,1.42l-8,8A1,1,0,0,1,88,23Z"/><path class="cls-4" d="M71,20a1,1,0,0,1-1-1V8a1,1,0,0,1,2,0V19A1,1,0,0,1,71,20Z"/><path class="cls-4" d="M102,40H91a1,1,0,0,1,0-2h11a1,1,0,0,1,0,2Z"/><path class="cls-8" d="M15,85a1,1,0,0,1-.71-1.71l3-3a1,1,0,1,1,1.42,1.42l-3,3A1,1,0,0,1,15,85Z"/><path class="cls-8" d="M19,89a1,1,0,0,1-.71-1.71l3-3a1,1,0,1,1,1.42,1.42l-3,3A1,1,0,0,1,19,89Z"/><path class="cls-9" d="M1,21V43a2,2,0,0,0,2,2H22l4.59,3.68A1.49,1.49,0,0,0,29,47.52V45h2a2,2,0,0,0,2-2V21a2,2,0,0,0-2-2H3A2,2,0,0,0,1,21Z"/><circle class="cls-8" cx="9" cy="32" r="2"/><circle class="cls-8" cx="17" cy="32" r="2"/><circle class="cls-8" cx="25" cy="32" r="2"/></g></svg>