<svg xmlns="http://www.w3.org/2000/svg" viewBox="0 0 110 110"><defs><style>.cls-1{fill:#e7efff;}.cls-2{fill:#ff4d69;}.cls-3{fill:#ffa100;}.cls-4{fill:#8fa2ff;}.cls-5{fill:#fff;}.cls-6{fill:#4e6aff;}.cls-7{fill:#323fd4;}.cls-8{fill:#00c99f;}.cls-9{fill:#7f96d1;}.cls-10{fill:#a5bced;}</style></defs><title>Strategy</title><g id="_5._Strategy" data-name="5. Strategy"><circle class="cls-1" cx="55" cy="59" r="50"/><path class="cls-1" d="M105,59A50,50,0,1,1,55,9,50,50,0,0,1,105,59Z"/><circle class="cls-2" cx="28" cy="4" r="3"/><circle class="cls-3" cx="101" cy="40" r="3"/><circle class="cls-2" cx="106" cy="97" r="3"/><circle class="cls-3" cx="4" cy="55" r="3"/><path class="cls-4" d="M21,28H89a4,4,0,0,1,4,4V84a0,0,0,0,1,0,0H17a0,0,0,0,1,0,0V32A4,4,0,0,1,21,28Z"/><rect class="cls-5" x="21" y="32" width="68" height="48"/><rect class="cls-6" x="12" y="84" width="86" height="8" rx="2"/><path class="cls-7" d="M59,28H51V24a4,4,0,0,1,8,0Z"/><path class="cls-7" d="M71.66,106.15a49.82,49.82,0,0,1-5.27,1.55L64.65,104H45.35l-1.74,3.7a49.82,49.82,0,0,1-5.27-1.55L45,92h6l-2.82,6H61.82L59,92h6Z"/><circle class="cls-8" cx="33" cy="68" r="6"/><circle class="cls-8" cx="78" cy="43" r="6"/><path class="cls-2" d="M34.83,42l1.58-1.59a2,2,0,0,0-2.82-2.82L32,39.17l-1.59-1.58a2,2,0,0,0-2.82,2.82L29.17,42l-1.58,1.59a2,2,0,0,0,2.82,2.82L32,44.83l1.59,1.58a2,2,0,0,0,2.82-2.82Z"/><path class="cls-2" d="M80.83,69l1.58-1.59a2,2,0,0,0-2.82-2.82L78,66.17l-1.59-1.58a2,2,0,0,0-2.82,2.82L75.17,69l-1.58,1.59a2,2,0,0,0,2.82,2.82L78,71.83l1.59,1.58a2,2,0,0,0,2.82-2.82Z"/><circle class="cls-9" cx="65.79" cy="65.79" r="2"/><circle class="cls-9" cx="46" cy="47" r="2"/><path class="cls-10" d="M68.19,46l-6-.56a2,2,0,0,0-.37,4l1.19.11L43.36,62.32A2,2,0,0,0,44.46,66c.85,0-.73.85,21.1-13.33l-.11,1.12a2,2,0,1,0,4,.37l.56-6A2,2,0,0,0,68.19,46Z"/></g></svg>